<?xml version="1.0" standalone="no"?><!DOCTYPE svg PUBLIC "-//W3C//DTD SVG 1.1//EN" "http://www.w3.org/Graphics/SVG/1.1/DTD/svg11.dtd"><svg t="1676960096642" class="icon" viewBox="0 0 1024 1024" version="1.1" xmlns="http://www.w3.org/2000/svg" p-id="4973" xmlns:xlink="http://www.w3.org/1999/xlink" width="200" height="200"><path d="M464.6 901.4c-11.3 0-20.5-9.2-20.5-20.5V676.1c0-11.3 9.2-20.5 20.5-20.5s20.5 9.2 20.5 20.5v204.8c0 11.3-9.1 20.5-20.5 20.5z m90.5-42.7c-1.3 0-2.7-0.1-4-0.4-11.1-2.2-18.3-13-16.1-24.1l32.4-162.1c2.2-11.1 13-18.3 24.1-16.1 11.1 2.2 18.3 13 16.1 24.1l-32.4 162.1c-1.9 9.7-10.5 16.5-20.1 16.5z" fill="#008c8c" p-id="4974"></path><path d="M464.6 901.4c-11.3 0-20.5-9.2-20.5-20.5V676.1c0-11.3 9.2-20.5 20.5-20.5s20.5 9.2 20.5 20.5v204.8c0 11.3-9.1 20.5-20.5 20.5z m-90-40.4c-9.6 0-18.1-6.7-20.1-16.5l-32.9-164.4c-2.2-11.1 5-21.9 16.1-24.1 11.1-2.2 21.9 5 24.1 16.1l32.9 164.4c2.2 11.1-5 21.9-16.1 24.1-1.3 0.3-2.6 0.4-4 0.4zM232.3 855.6c-9.4 0-17.9-6.5-20-16.1l-21.5-97.8c-8.7-38.6-1.8-77.2 19.4-108.9 20.6-30.7 52.3-51 89.3-57.2 11.2-1.9 21.7 5.6 23.6 16.8 1.9 11.2-5.6 21.7-16.8 23.6-25.8 4.3-47.9 18.4-62.1 39.6-14.9 22.2-19.7 49.6-13.4 77.1v0.1l21.5 97.9c2.4 11-4.6 22-15.6 24.4-1.5 0.4-3 0.5-4.4 0.5z m466.2-6.8c-1.5 0-2.9-0.2-4.4-0.5-11-2.4-18-13.4-15.6-24.4l20-91c1.3-5.7 2.1-11.4 2.5-17.1 1.6-24.5-5.8-48.2-20.6-66.5-14.6-18.1-35.6-30-59.2-33.5-11.2-1.7-18.9-12.1-17.2-23.3 1.7-11.2 12.1-18.9 23.3-17.2 33.7 5 63.9 22.2 85 48.3 21.3 26.3 31.8 60 29.6 94.8-0.5 7.8-1.6 15.7-3.3 23.4l-20 91c-2.2 9.5-10.6 16-20.1 16z" fill="#008c8c" p-id="4975"></path><path d="M403.2 942.4c-45.9 0-81.9-27-81.9-61.4s36-61.4 81.9-61.4c11.3 0 20.5 9.2 20.5 20.5s-9.2 20.5-20.5 20.5c-25 0-41 12.1-41 20.5s16 20.5 41 20.5 41-12.1 41-20.5c0-11.3 9.2-20.5 20.5-20.5s20.5 9.2 20.5 20.5c-0.1 34.3-36.1 61.3-82 61.3zM258.7 935.6c-45.9 0-81.9-27-81.9-61.4 0-14.1 6.3-27.9 17.8-38.6 9.8-9.2 23-16 38.1-19.7 11-2.7 22.1 4 24.8 15 2.7 11-4 22.1-15 24.8-15.4 3.8-24.6 12.4-24.6 18.6 0 8.4 16 20.5 41 20.5 10.1 0 20-2.1 27.7-6 10.1-5.1 22.4-1 27.5 9.1 5.1 10.1 1 22.4-9.1 27.5-13.8 6.6-29.7 10.2-46.3 10.2zM670.7 935.9c-10.1 0-19.9-1.3-29.3-3.9-2.7-0.8-5.5-1.7-8.1-2.6-3.5-1.3-7-2.9-10.2-4.6-10-5.3-13.9-17.6-8.6-27.7 5.3-10 17.6-13.9 27.7-8.6 1.7 0.9 3.6 1.7 5.5 2.5 1.5 0.6 3.1 1.1 4.7 1.5 5.7 1.6 11.9 2.4 18.2 2.4 25 0 41-12.1 41-20.5 0-5.9-8.4-14.4-24-18.4-11-2.8-17.6-14-14.8-24.9 2.8-11 14-17.6 24.9-14.8 33.3 8.5 54.8 31.3 54.8 58.1 0.1 34.6-35.8 61.5-81.8 61.5z" fill="#008c8c" p-id="4976"></path><path d="M526.1 942.4c-45.9 0-81.9-27-81.9-61.4 0-11.3 9.2-20.5 20.5-20.5s20.5 9.2 20.5 20.5c0 8.4 16 20.5 41 20.5s41-12.1 41-20.5-16-20.5-41-20.5c-11.3 0-20.5-9.2-20.5-20.5s9.2-20.5 20.5-20.5c45.9 0 81.9 27 81.9 61.4s-36.1 61.5-82 61.5zM465.5 636.9c-32.8 0-67.2-9-102.3-26.7-32.1-16.2-63.6-39.4-91.1-67.1-27.6-27.7-50.6-59.4-66.7-91.7-17.6-35.4-26.6-70.1-26.6-103.1 0-33.4 7.8-65.8 23.1-96.2 14.7-29.1 35.6-55.2 62.2-77.5 54-45.3 125.5-70.2 201.4-70.2s147.5 24.9 201.4 70.2c26.6 22.3 47.5 48.4 62.2 77.5 15.3 30.4 23.1 62.8 23.1 96.2 0 33-8.9 67.7-26.6 103.1-16.1 32.3-39.2 64-66.7 91.7-27.5 27.7-59 50.9-91.1 67.1-35.1 17.7-69.6 26.7-102.3 26.7z m0-491.5c-135.5 0-245.8 91-245.8 202.9 0 52.6 30.4 114.6 81.4 165.9 50.9 51.2 112.3 81.7 164.4 81.7s113.5-30.6 164.4-81.7c51-51.3 81.4-113.3 81.4-165.9-0.1-111.9-110.3-202.9-245.8-202.9z" fill="#008c8c" p-id="4977"></path><path d="M444.1 507.6c-5.8-33.9-23.4-64.9-49.8-87.4-26.6-22.7-60.6-35.2-95.6-35.2-24 0-47.8 5.9-68.9 17l-15.3-29c25.8-13.6 54.9-20.8 84.2-20.8 42.8 0 84.3 15.3 116.9 43 32.2 27.4 53.8 65.4 60.8 106.8l-32.3 5.6z" fill="#008c8c" p-id="4978"></path><path d="M483.1 497.5l-31.8-7.7c9.4-38.6 31.7-73.5 63-98.3 32.2-25.6 71-39.2 112.2-39.2 32.2 0 63.9 8.6 91.5 24.9l-16.7 28.2c-22.6-13.3-48.5-20.4-74.9-20.4-33.7 0-65.4 11.1-91.8 32-25.5 20.4-43.8 49-51.5 80.5z" fill="#008c8c" p-id="4979"></path><path d="M497.3 522.5c11.3-19.6 4.6-44.6-15-56-6.2-3.6-13.3-5.5-20.5-5.5-22.6 0-41 18.3-41 41 0 7.2 1.9 14.3 5.5 20.5 11.3 19.6 36.4 26.3 56 15a40 40 0 0 0 15-15z" fill="#008c8c" p-id="4980"></path><path d="M184.5 297.7c-1.6-68.5-2.1-121.5-1.5-157.5 1-55.4 4.2-64.9 10.7-72.1 4.3-4.8 10.4-7.6 17.1-7.8 13-0.4 30.1 5.5 108.2 82l-28.7 29.3c-33.2-32.6-53.4-50.2-65.5-59.7-1.3 24.8-2 76.6 0.6 184.9l-40.9 0.9zM745.1 292.7l-41-0.5c1.3-102.3 0.8-154.6-0.2-181.3-12.8 10.2-33.1 27.4-65.3 56.4l-27.4-30.4c29.9-27 53.3-47.1 69.5-59.9 8.8-6.9 15.6-11.8 21-14.9 4.7-2.8 18.8-11.2 31.5-1.3 8.2 6.4 9.5 16 10.6 30 0.8 9.9 1.3 23.7 1.6 42.2 0.7 36 0.6 89.7-0.3 159.7zM701.9 84.5z" fill="#008c8c" p-id="4981"></path><path d="M341.9 422.5m-20.5 0a20.5 20.5 0 1 0 41 0 20.5 20.5 0 1 0-41 0Z" fill="#008c8c" p-id="4982"></path><path d="M582 421.8m-20.5 0a20.5 20.5 0 1 0 41 0 20.5 20.5 0 1 0-41 0Z" fill="#008c8c" p-id="4983"></path><path d="M463.1 130.2c11.3 0 20.5 9.2 20.5 20.5v122.9c0 11.3-9.2 20.5-20.5 20.5s-20.5-9.2-20.5-20.5v-123c0-11.3 9.2-20.4 20.5-20.4z" fill="#008c8c" p-id="4984"></path><path d="M740 707.5c-7.7 0-12.1-1.2-15.2-2.5-10.1-4-13.5-11.4-14.6-15.5-3.9-13.7 4.9-25.6 17.1-42.1 20.5-27.8 48.6-65.8 24-112.9-16.9-32.4-12.7-65.2 11.8-92.3 24.1-26.7 61.1-41.2 81-47.4 24.1-7.6 55.9-13.3 72.8-6.6 7 2.8 11.9 8.2 13.7 15.1 3.8 14.7-7.4 28.6-24.3 49.6-18.5 23-43.9 54.4-40.1 78.1 1.6 9.7 8.3 18.2 20.6 26 40.2 25.6 30.8 55.2 24.9 66.7-16 31.1-64.5 53.7-92 64.3-18.2 7.1-37.2 12.8-53.4 16.1-11.5 2.6-20 3.4-26.3 3.4z m-3.1-34z m152.9-254.1c-8.9 0.8-21.5 3.1-37.1 8.2-28.3 9.2-52.2 23.2-65.4 38.5-14.2 16.4-16.1 33.2-5.9 52.8 15 28.8 17.5 58.7 7.3 89-8.2 24.6-23.2 44.9-34.2 59.7-1.2 1.6-2.5 3.4-3.8 5.2 13.9-2.1 36-7.7 61.4-18 37.2-15.1 64.1-33.4 70.2-47.8 1.3-3 4.2-10-13.6-21.3-20.6-13.1-32.6-29.6-35.8-49.1-6.3-38.7 24.6-76.9 47.1-104.8 3.1-3.9 6.7-8.3 9.8-12.4z" fill="#008c8c" p-id="4985"></path></svg>